# xmcd
#
# Track frame offsets:
#	150
#	19232
#	31102
#	44582
#	54265
#	66890
#	78357
#	89697
#	103527
#	116757
#	128605
#	139130
#	150347
#	160055
#	175792
#	185450
#	196232
#	204757
#
# Disc length: 2857 seconds
#
# Revision: 0
# Processed by: cddbd v1.4PL0 Copyright (c) Steve Scherf et al.
# Submitted via: EasyCDDAExtractor 4.5.0.2
#
DISCID=e40b2712
DTITLE=Tom T. Hall and Boxcar Willie - 18 Greatest Hits
DYEAR=1900
DGENRE=Country
TTITLE0=Old Dogs, Children And Watermelon Wine (Tom T. Hall)
TTITLE1=Pamela Brown (Tom T. Hall)
TTITLE2=The Little Lady Preacher (Tom T. Hall)
TTITLE3=I Love (Tom T. Hall)
TTITLE4=I Washed My Face In The Morning Dew (Tom T. Hall)
TTITLE5=One Hundred Children (Tom T. Hall)
TTITLE6=Ravishing Ruby (Tom T. Hall)
TTITLE7=Ballad Of Forty Dollars (Tom T. Hall)
TTITLE8=I Like Beer (Tom T. Hall)
TTITLE9=Sioux City Sue (Boxcar Willie)
TTITLE10=Jambalaya (Boxcar Willie)
TTITLE11=Gotta Travel On (Boxcar Willie)
TTITLE12=Golden Rocket (Boxcar Willie)
TTITLE13=Will The Circle Be Unbroken (Boxcar Willie)
TTITLE14=Movin' On (Boxcar Willie)
TTITLE15=Rock Island Line (Boxcar Willie)
TTITLE16=If You've Got Money (Boxcar Willie)
TTITLE17=Walking The Floor Over You (Boxcar Willie)
EXTD=
EXTT0=
EXTT1=
EXTT2=
EXTT3=
EXTT4=
EXTT5=
EXTT6=
EXTT7=
EXTT8=
EXTT9=
EXTT10=
EXTT11=
EXTT12=
EXTT13=
EXTT14=
EXTT15=
EXTT16=
EXTT17=
PLAYORDER=
